<?xml version="1.0" encoding="iso-8859-1"?>
<!-- Generator: Adobe Illustrator 16.0.0, SVG Export Plug-In . SVG Version: 6.00 Build 0)  -->
<!DOCTYPE svg PUBLIC "-//W3C//DTD SVG 1.1//EN" "http://www.w3.org/Graphics/SVG/1.1/DTD/svg11.dtd">
<svg xmlns="http://www.w3.org/2000/svg" xmlns:xlink="http://www.w3.org/1999/xlink" version="1.1" id="Capa_1" x="0px" y="0px" width="512px" height="512px" viewBox="0 0 46 46" style="enable-background:new 0 0 46 46;" xml:space="preserve">
<g>
	<g>
		<path d="M20.913,34.756c-0.625,0.627-1.565,0.816-2.383,0.479c-0.818-0.336-1.352-1.135-1.352-2.02V12.784    c0-0.885,0.534-1.683,1.352-2.021c0.818-0.338,1.759-0.149,2.383,0.479l9.657,9.706c1.129,1.134,1.129,2.967,0,4.102    L20.913,34.756z" fill="#FFFFFF"/>
		<path d="M23,6c9.374,0,17,7.626,17,17s-7.626,17-17,17S6,32.374,6,23S13.626,6,23,6 M23,0C10.298,0,0,10.297,0,23s10.298,23,23,23    s23-10.297,23-23S35.702,0,23,0L23,0z" fill="#FFFFFF"/>
	</g>
</g>
<g>
</g>
<g>
</g>
<g>
</g>
<g>
</g>
<g>
</g>
<g>
</g>
<g>
</g>
<g>
</g>
<g>
</g>
<g>
</g>
<g>
</g>
<g>
</g>
<g>
</g>
<g>
</g>
<g>
</g>
</svg>
